<svg width="50" height="50" viewBox="0 0 50 50" fill="none" xmlns="http://www.w3.org/2000/svg">
<path fill-rule="evenodd" clip-rule="evenodd" d="M25.917 3.125C25.6345 3.125 25.3428 3.1396 25.0439 3.16328C17.339 3.77026 19.3823 11.9254 19.2656 14.6432C19.1253 16.6355 18.7188 18.2049 17.3499 20.1498C15.7368 22.0656 13.4729 25.1625 12.3992 28.3906C11.8925 29.9072 11.6519 31.4602 11.8761 32.9275C11.7923 32.9946 11.7234 33.0784 11.6738 33.1736C11.1999 33.6621 10.8553 34.2691 10.4671 34.7029C10.1043 35.0657 9.58301 35.1896 9.01431 35.4321C8.44385 35.68 7.81494 35.9224 7.43945 36.6733C7.27539 37.016 7.19155 37.3896 7.19883 37.7688C7.19883 38.1316 7.24805 38.4998 7.29907 38.7458C7.40479 39.4731 7.5105 40.0747 7.37017 40.5139C6.91812 41.7534 6.86162 42.6028 7.17876 43.2207C7.49595 43.8296 8.15396 44.0757 8.89038 44.3163C10.3687 44.6808 12.3719 44.5624 13.9486 45.4081C15.6365 46.2594 17.35 46.6312 18.717 46.2648C19.1898 46.1615 19.6333 45.9529 20.0145 45.6547C20.3956 45.3565 20.7048 44.9763 20.9189 44.5423C21.9889 44.5368 23.161 44.0519 25.0384 43.9335C26.3125 43.8278 27.9075 44.4202 29.7376 44.2962C29.7832 44.5423 29.8524 44.6589 29.9454 44.905L29.9508 44.9105C30.6636 46.3286 31.9796 46.9739 33.385 46.8627C34.7903 46.7533 36.2868 45.8856 37.499 44.4821C38.6492 43.0877 40.5667 42.5062 41.8336 41.7425C42.4679 41.3797 42.9801 40.8876 43.0165 40.1876C43.0585 39.4585 42.6539 38.7076 41.7151 37.6777V37.5009L41.7096 37.4954C41.3998 37.1309 41.254 36.5202 41.0936 35.8075C40.9386 35.0766 40.7618 34.3748 40.1967 33.9009H40.1913C40.0837 33.8024 39.967 33.7788 39.8486 33.6548C39.7466 33.5836 39.6265 33.5431 39.5022 33.5381C40.2879 31.2086 39.9834 28.89 39.1869 26.8047C38.2153 24.2346 36.5165 21.9962 35.2223 20.456C33.7714 18.6241 32.3496 16.8888 32.377 14.315C32.4262 10.3924 32.809 3.13594 25.917 3.125ZM26.8812 9.33154H26.905C27.2932 9.33154 27.6268 9.44458 27.9694 9.69248C28.3176 9.93857 28.571 10.2977 28.7697 10.6641C28.9611 11.1361 29.0577 11.5007 29.0723 11.9837C29.0723 11.9473 29.0832 11.9108 29.0832 11.8762V12.0658C29.0792 12.0534 29.0767 12.0405 29.0759 12.0275L29.0686 11.9837C29.0649 12.4267 28.9719 12.8644 28.7952 13.2706C28.71 13.4991 28.5778 13.7072 28.407 13.8812C28.3553 13.8521 28.3017 13.8265 28.2465 13.8047C28.0551 13.7227 27.8838 13.688 27.727 13.5623C27.5977 13.5106 27.4641 13.4704 27.3278 13.442C27.4172 13.3344 27.5921 13.1996 27.6596 13.0811C27.7562 12.8478 27.809 12.5999 27.82 12.3483V12.3136C27.8241 12.0661 27.7865 11.8196 27.7088 11.5846C27.6268 11.3385 27.5248 11.2182 27.3752 10.9757C27.2221 10.8554 27.0708 10.7351 26.8886 10.7351H26.8594C26.6899 10.7351 26.5386 10.7898 26.3818 10.9757C26.2088 11.1446 26.0804 11.3538 26.0082 11.5846C25.9113 11.8162 25.8558 12.0629 25.8441 12.3137V12.3483C25.8478 12.5105 25.8587 12.6746 25.8806 12.835C25.5288 12.7129 25.0822 12.5889 24.7741 12.4668C24.7558 12.3467 24.7448 12.2255 24.7413 12.104V12.0676C24.7267 11.5858 24.8202 11.1068 25.0147 10.6659C25.1641 10.2658 25.4391 9.92496 25.7985 9.69433C26.1103 9.4588 26.4905 9.33143 26.8812 9.33154ZM21.4822 9.43911H21.5478C21.8066 9.43911 22.04 9.52661 22.2751 9.6852C22.5412 9.92036 22.7563 10.2102 22.9021 10.5328C23.0662 10.8956 23.1591 11.2638 23.181 11.7486V11.7559C23.1937 12.0001 23.1919 12.1223 23.1774 12.2408V12.3866C23.1227 12.3993 23.0753 12.4194 23.0261 12.4303C22.749 12.5306 22.5266 12.6764 22.3098 12.7949C22.3316 12.6327 22.3334 12.4686 22.3152 12.3082V12.2809C22.2933 12.0384 22.2441 11.9181 22.1657 11.6739C22.1089 11.4881 22.0046 11.3204 21.8631 11.1872C21.8182 11.1463 21.7655 11.1149 21.7082 11.0949C21.6509 11.0749 21.5902 11.0666 21.5296 11.0705H21.4913C21.3619 11.0814 21.2543 11.1452 21.1522 11.3111C21.0359 11.4523 20.9603 11.6224 20.9335 11.8033C20.884 12.0004 20.8698 12.2046 20.8916 12.4066V12.4321C20.9135 12.6782 20.959 12.7985 21.0393 13.041C21.1213 13.2852 21.216 13.4055 21.34 13.5294C21.3601 13.5458 21.3783 13.5623 21.402 13.5732C21.2744 13.6771 21.1887 13.7008 21.0812 13.8211C21.0129 13.8813 20.9309 13.9239 20.8424 13.9451C20.6529 13.7169 20.4851 13.4716 20.3411 13.2123C20.1688 12.8292 20.0729 12.4163 20.0586 11.9965C20.0284 11.585 20.0779 11.1716 20.2044 10.7789C20.3048 10.4207 20.4807 10.0882 20.7203 9.80371C20.9536 9.56128 21.1942 9.43911 21.4822 9.43911ZM23.9812 12.5488C24.5846 12.5488 25.3155 12.6673 26.1959 13.2761C26.73 13.6407 27.1492 13.7665 28.1153 14.1292H28.1208C28.5856 14.3771 28.859 14.6141 28.992 14.8565V14.6177C29.0574 14.7503 29.0939 14.8952 29.0989 15.0429C29.1039 15.1906 29.0775 15.3377 29.0212 15.4744C28.797 16.0413 28.0807 16.6483 27.0818 17.011V17.0147C26.5933 17.2608 26.1686 17.6216 25.6691 17.8623C25.166 18.1083 24.5974 18.3945 23.8244 18.349C23.5468 18.3634 23.2691 18.3218 23.0079 18.2268C22.806 18.117 22.6101 17.9965 22.4209 17.8659C22.0655 17.6198 21.7592 17.2607 21.3054 17.0183V17.0092H21.2962C20.5671 16.5608 20.1734 16.0759 20.0458 15.7132C19.9201 15.2247 20.0367 14.8583 20.3976 14.6195C20.8059 14.3734 21.0903 14.1256 21.278 14.0071C21.4676 13.8722 21.5387 13.8211 21.5988 13.7683H21.6025V13.7628C21.9105 13.3946 22.3972 12.908 23.1318 12.6673C23.3852 12.6017 23.6677 12.5488 23.9812 12.5488ZM29.0832 16.4551C29.7376 19.038 31.2651 22.7893 32.2476 24.6084C32.7688 25.5818 33.8061 27.6324 34.2562 30.1205C34.5406 30.1114 34.856 30.1533 35.1913 30.2372C36.3688 27.1913 34.1961 23.9176 33.2063 23.008C32.8035 22.6416 32.7835 22.3974 32.9821 22.3974C34.0558 23.3708 35.4702 25.2628 35.9824 27.4228C36.2176 28.398 36.2723 29.4352 36.0207 30.4668C36.1428 30.5179 36.2668 30.578 36.3944 30.589C38.2755 31.5623 38.97 32.2987 38.6364 33.3906V33.3122C38.5252 33.3067 38.4177 33.3122 38.3065 33.3122H38.2791C38.5544 32.461 37.9474 31.8084 36.3379 31.0811C34.67 30.352 33.3376 30.4687 33.1097 31.9287C33.097 32.0071 33.0878 32.049 33.0788 32.1748C32.9548 32.2167 32.8253 32.2714 32.6978 32.2915C31.914 32.7799 31.4911 33.5109 31.2523 34.4551C31.0153 35.4267 30.9424 36.5623 30.8787 37.8619V37.8673C30.8404 38.4762 30.5669 39.3948 30.2972 40.3299C27.563 42.2839 23.7716 43.1334 20.5471 40.9387C20.3448 40.5852 20.0986 40.2588 19.8143 39.9672C19.6786 39.7403 19.5097 39.5351 19.3131 39.3584C19.6448 39.3584 19.9291 39.3055 20.1606 39.2363C20.4228 39.1147 20.6278 38.8966 20.733 38.6274C20.9299 38.1408 20.733 37.3569 20.1041 36.5076C19.4753 35.6563 18.4071 34.6939 16.845 33.7351C15.6967 33.0078 15.0478 32.1493 14.7488 31.1905C14.448 30.2171 14.4881 29.2127 14.7215 28.192C15.1681 26.2416 16.3128 24.3459 17.0437 23.1557C17.2387 23.0372 17.1111 23.4018 16.3 24.9311C15.5782 26.2999 14.2202 29.4825 16.0776 31.9561C16.1478 30.1513 16.5475 28.3746 17.257 26.7137C18.285 24.3842 20.4341 20.3267 20.6036 17.1113C20.6911 17.1769 20.9991 17.3574 21.1304 17.4794C21.5277 17.7219 21.823 18.0865 22.2058 18.3271C22.5904 18.6935 23.0753 18.9377 23.8026 18.9377C23.8737 18.9432 23.9393 18.9486 24.0049 18.9486C24.7541 18.9486 25.3337 18.7044 25.8204 18.4602C26.349 18.2159 26.7701 17.8513 27.1693 17.7311H27.1784C28.0296 17.485 28.7022 16.9983 29.0832 16.4551M33.0678 32.7836C33.1352 33.8791 33.693 35.053 34.6754 35.2936C35.7472 35.5378 37.2893 34.6866 37.9401 33.8991L38.3247 33.8827C38.8989 33.8682 39.3764 33.901 39.8686 34.3694L39.874 34.3749C40.2532 34.7376 40.43 35.3428 40.5868 35.9716C40.7417 36.7026 40.8675 37.3934 41.3323 37.9147C42.2182 38.8753 42.508 39.5662 42.4915 39.9927L42.497 39.9818V40.0146L42.4915 39.9927C42.4642 40.4703 42.1543 40.7145 41.5838 41.0773C40.4354 41.8083 38.4012 42.3751 37.1052 43.9391C35.9788 45.2824 34.6062 46.0152 33.394 46.11C32.1837 46.2066 31.1393 45.7454 30.5249 44.4731L30.5159 44.4677C30.1331 43.7367 30.2971 42.5993 30.6179 41.3871C30.9387 40.1695 31.3981 38.9355 31.4619 37.9275C31.5293 36.626 31.6004 35.4941 31.8173 34.6209C32.0361 33.7734 32.3788 33.1682 32.9857 32.8273L33.0678 32.7873V32.7836ZM13.3543 32.8729H13.3726C13.4691 32.8729 13.564 32.882 13.6587 32.8984C14.3441 32.9987 14.9456 33.5054 15.5234 34.2692L17.1822 37.3023L17.1876 37.3078C17.6306 38.2793 18.562 39.2472 19.3549 40.2935C20.146 41.3835 20.7585 42.355 20.6837 43.1553V43.1662C20.5798 44.5224 19.8106 45.2587 18.6331 45.5248C17.4574 45.7709 15.8625 45.5285 14.2675 44.6791C12.5031 43.702 10.4069 43.8242 9.05986 43.5818C8.38726 43.4615 7.94609 43.2154 7.74199 42.8508C7.53965 42.4881 7.53599 41.7554 7.96616 40.6088V40.6034L7.96982 40.5979C8.18311 39.9891 8.02451 39.2253 7.92061 38.5582C7.82036 37.8272 7.76929 37.2658 7.99898 36.8448C8.29063 36.2359 8.7208 36.1175 9.25488 35.8732C9.79263 35.6271 10.4233 35.505 10.9246 35.0183H10.9282V35.0129C11.3948 34.5244 11.7394 33.9174 12.1458 33.4854C12.4921 33.119 12.8385 32.8729 13.3543 32.8729M26.4036 16.3329C25.6106 16.6993 24.6811 17.3081 23.6913 17.3081C22.7034 17.3081 21.9232 16.8214 21.36 16.4587C21.0774 16.2144 20.8496 15.9702 20.6782 15.848C20.3793 15.6038 20.4158 15.2393 20.5434 15.2393C20.742 15.2684 20.7785 15.4854 20.9061 15.6056C21.0811 15.7259 21.298 15.9684 21.5641 16.2126C22.0945 16.5771 22.8036 17.0639 23.6895 17.0639C24.5735 17.0639 25.6089 16.5771 26.2377 16.2144C26.5932 15.9683 27.0489 15.6056 27.4189 15.3632C27.7033 15.1135 27.6905 14.8747 27.9274 14.8747C28.1626 14.9039 27.9895 15.1189 27.6595 15.4817C27.2552 15.7875 26.8354 16.0722 26.4018 16.3347V16.3329L26.4036 16.3329ZM24.4313 13.4457V13.4055C24.4204 13.3708 24.455 13.329 24.4842 13.3144C24.6191 13.236 24.8124 13.2651 24.9582 13.3217C25.0729 13.3217 25.2498 13.4437 25.2316 13.5678C25.2206 13.6571 25.0766 13.688 24.9855 13.688C24.8852 13.688 24.8178 13.6097 24.7285 13.5641C24.6337 13.5313 24.4624 13.5495 24.4313 13.4456M23.427 13.4456C23.3905 13.5513 23.221 13.5349 23.1244 13.5659C23.0387 13.6114 22.9677 13.6898 22.871 13.6898C22.7781 13.6898 22.6323 13.6552 22.6213 13.5659C22.6049 13.4456 22.7817 13.3234 22.8948 13.3234C23.0424 13.2669 23.2301 13.2377 23.3668 13.3143C23.4015 13.3307 23.4325 13.369 23.4215 13.4055V13.4437H23.427L23.427 13.4456Z" fill="#B60000"/>
</svg>
