<svg width="50" height="50" viewBox="0 0 50 50" fill="none" xmlns="http://www.w3.org/2000/svg">
<path d="M43.7487 33.334H35.4154C34.2648 33.334 33.332 34.2667 33.332 35.4173V43.7507C33.332 44.9012 34.2648 45.834 35.4154 45.834H43.7487C44.8993 45.834 45.832 44.9012 45.832 43.7507V35.4173C45.832 34.2667 44.8993 33.334 43.7487 33.334Z" stroke="#B60000" stroke-width="2" stroke-linecap="round" stroke-linejoin="round"/>
<path d="M14.5827 33.334H6.24935C5.09876 33.334 4.16602 34.2667 4.16602 35.4173V43.7507C4.16602 44.9012 5.09876 45.834 6.24935 45.834H14.5827C15.7333 45.834 16.666 44.9012 16.666 43.7507V35.4173C16.666 34.2667 15.7333 33.334 14.5827 33.334Z" stroke="#B60000" stroke-width="2" stroke-linecap="round" stroke-linejoin="round"/>
<path d="M29.1667 4.16699H20.8333C19.6827 4.16699 18.75 5.09973 18.75 6.25033V14.5837C18.75 15.7343 19.6827 16.667 20.8333 16.667H29.1667C30.3173 16.667 31.25 15.7343 31.25 14.5837V6.25033C31.25 5.09973 30.3173 4.16699 29.1667 4.16699Z" stroke="#B60000" stroke-width="2" stroke-linecap="round" stroke-linejoin="round"/>
<path d="M10.416 33.3337V27.0837C10.416 26.5311 10.6355 26.0012 11.0262 25.6105C11.4169 25.2198 11.9468 25.0003 12.4993 25.0003H37.4993C38.0519 25.0003 38.5818 25.2198 38.9725 25.6105C39.3632 26.0012 39.5827 26.5311 39.5827 27.0837V33.3337M24.9993 25.0003V16.667" stroke="#B60000" stroke-width="2" stroke-linecap="round" stroke-linejoin="round"/>
</svg>
