<svg width="32" height="28" viewBox="0 0 32 28" fill="none" xmlns="http://www.w3.org/2000/svg">
<path d="M16 0C16.943 0 17.8474 0.368749 18.5142 1.02513C19.181 1.6815 19.5556 2.57174 19.5556 3.5C19.5556 4.42826 19.181 5.3185 18.5142 5.97487C17.8474 6.63125 16.943 7 16 7C15.057 7 14.1526 6.63125 13.4858 5.97487C12.819 5.3185 12.4444 4.42826 12.4444 3.5C12.4444 2.57174 12.819 1.6815 13.4858 1.02513C14.1526 0.368749 15.057 0 16 0ZM21.3333 17.0625C21.3333 18.4297 20.6278 19.6328 19.5556 20.3383V22.75H12.4444V20.3383C11.3722 19.6328 10.6667 18.4297 10.6667 17.0625V14.875C10.6667 11.9766 13.0556 9.625 16 9.625C18.9444 9.625 21.3333 11.9766 21.3333 14.875V17.0625ZM22.2222 22.75V21.257C23.3278 20.0266 24 18.4023 24 16.625V14.875C24 13.4148 23.5944 12.0531 22.8944 10.8773C23.5111 10.6312 24.1833 10.5 24.8889 10.5C27.8333 10.5 30.2222 12.8516 30.2222 15.75V17.5C30.2222 18.7961 29.5056 19.9281 28.4444 20.5297V22.75H22.2222ZM3.55556 20.5297C2.49444 19.9281 1.77778 18.7961 1.77778 17.5V15.75C1.77778 12.8516 4.16667 10.5 7.11111 10.5C7.81667 10.5 8.48889 10.6367 9.10556 10.8773C8.40556 12.0477 8 13.4148 8 14.875V16.625C8 18.4023 8.67222 20.0211 9.77778 21.257V22.75H3.55556V20.5297ZM7.11111 1.75C7.51967 1.75 7.92422 1.82921 8.30168 1.98312C8.67914 2.13702 9.02211 2.36261 9.311 2.64699C9.59989 2.93136 9.82906 3.26897 9.9854 3.64053C10.1418 4.01209 10.2222 4.41033 10.2222 4.8125C10.2222 5.21467 10.1418 5.61291 9.9854 5.98447C9.82906 6.35603 9.59989 6.69363 9.311 6.97801C9.02211 7.26239 8.67914 7.48798 8.30168 7.64188C7.92422 7.79579 7.51967 7.875 7.11111 7.875C6.70255 7.875 6.298 7.79579 5.92054 7.64188C5.54308 7.48798 5.20012 7.26239 4.91122 6.97801C4.62233 6.69363 4.39317 6.35603 4.23682 5.98447C4.08047 5.61291 4 5.21467 4 4.8125C4 4.41033 4.08047 4.01209 4.23682 3.64053C4.39317 3.26897 4.62233 2.93136 4.91122 2.64699C5.20012 2.36261 5.54308 2.13702 5.92054 1.98312C6.298 1.82921 6.70255 1.75 7.11111 1.75ZM24.8889 1.75C25.2974 1.75 25.702 1.82921 26.0795 1.98312C26.4569 2.13702 26.7999 2.36261 27.0888 2.64699C27.3777 2.93136 27.6068 3.26897 27.7632 3.64053C27.9195 4.01209 28 4.41033 28 4.8125C28 5.21467 27.9195 5.61291 27.7632 5.98447C27.6068 6.35603 27.3777 6.69363 27.0888 6.97801C26.7999 7.26239 26.4569 7.48798 26.0795 7.64188C25.702 7.79579 25.2974 7.875 24.8889 7.875C24.4803 7.875 24.0758 7.79579 23.6983 7.64188C23.3209 7.48798 22.9779 7.26239 22.689 6.97801C22.4001 6.69363 22.1709 6.35603 22.0146 5.98447C21.8582 5.61291 21.7778 5.21467 21.7778 4.8125C21.7778 4.41033 21.8582 4.01209 22.0146 3.64053C22.1709 3.26897 22.4001 2.93136 22.689 2.64699C22.9779 2.36261 23.3209 2.13702 23.6983 1.98312C24.0758 1.82921 24.4803 1.75 24.8889 1.75ZM1.33333 25.375H30.6667C31.4056 25.375 32 25.9602 32 26.6875C32 27.4148 31.4056 28 30.6667 28H1.33333C0.594444 28 0 27.4148 0 26.6875C0 25.9602 0.594444 25.375 1.33333 25.375Z" fill="#FF0000"/>
</svg>
