<svg width="50" height="50" viewBox="0 0 50 50" fill="none" xmlns="http://www.w3.org/2000/svg">
<path d="M45.8327 19.7917V6.25H4.16602V35.4167H21.8743M8.33268 43.75H21.8743M38.541 30.2083V27.6042M38.541 30.2083C36.8834 30.2083 35.2937 30.8668 34.1216 32.0389C32.9495 33.211 32.291 34.8007 32.291 36.4583C32.291 38.1159 32.9495 39.7056 34.1216 40.8778C35.2937 42.0499 36.8834 42.7083 38.541 42.7083M38.541 30.2083C40.1986 30.2083 41.7883 30.8668 42.9604 32.0389C44.1325 33.211 44.791 34.8007 44.791 36.4583C44.791 38.1159 44.1325 39.7056 42.9604 40.8778C41.7883 42.0499 40.1986 42.7083 38.541 42.7083M38.541 42.7083V45.3125M33.1285 33.3333L30.8723 32.0312M43.9535 39.5833L46.2098 40.8854M43.9535 33.3333L46.2098 32.0312M33.1243 39.5833L30.8702 40.8854" stroke="#B60000" stroke-width="4" stroke-linecap="square"/>
</svg>
