<svg width="48" height="48" viewBox="0 0 48 48" fill="none" xmlns="http://www.w3.org/2000/svg">
<path d="M24 39.75C23.4333 39.75 22.8833 39.6253 22.35 39.376C21.8167 39.1267 21.35 38.768 20.95 38.3L5.65 20C5.35 19.6333 5.12533 19.2333 4.976 18.8C4.82667 18.3667 4.75133 17.9167 4.75 17.45C4.75 17.15 4.77533 16.842 4.826 16.526C4.87667 16.21 4.98467 15.918 5.15 15.65L8.9 8.2C9.26667 7.53333 9.75867 7 10.376 6.6C10.9933 6.2 11.6847 6 12.45 6H35.55C36.3167 6 37.0087 6.2 37.626 6.6C38.2433 7 38.7347 7.53333 39.1 8.2L42.85 15.65C43.0167 15.9167 43.1253 16.208 43.176 16.524C43.2267 16.84 43.2513 17.1487 43.25 17.45C43.25 17.9167 43.1753 18.3667 43.026 18.8C42.8767 19.2333 42.6513 19.6333 42.35 20L27.05 38.3C26.65 38.7667 26.1833 39.1253 25.65 39.376C25.1167 39.6267 24.5667 39.7513 24 39.75ZM19.25 16H28.75L25.75 10H22.25L19.25 16ZM22 33.35V20H10.9L22 33.35ZM26 33.35L37.1 20H26V33.35ZM33.2 16H38.5L35.5 10H30.2L33.2 16ZM9.5 16H14.8L17.8 10H12.5L9.5 16Z" fill="#B60000"/>
</svg>
